# xmcd
#
# Track frame offsets:
#	150
#	20640
#	36280
#	53502
#	69896
#	85820
#	101482
#	120700
#	139274
#	155008
#
# Disc length: 2364 seconds
# Revision: 0
# Processed by: cddbd v1.5.2PL0 Copyright (c) Steve Scherf et al.
# Submitted via: dBpowerAMP V12.0
#
DISCID=7f093a0a
DTITLE=Johnny Rawls - Soul Survivor
DYEAR=2012
DGENRE=Blues Soul
TTITLE0=Soul Survivor
TTITLE1=Hand Me Downs
TTITLE2=Eight Men, Four Women
TTITLE3=King of Hearts
TTITLE4=Lone Way From Home
TTITLE5=Bad Little Girl
TTITLE6=Drowning
TTITLE7=Don't Need a Gun To Steal
TTITLE8=J.R.'S Groove
TTITLE9=Yes
EXTD=
EXTT0=
EXTT1=
EXTT2=
EXTT3=
EXTT4=
EXTT5=
EXTT6=
EXTT7=
EXTT8=
EXTT9=
PLAYORDER=
